# xmcd
#
# Track frame offsets:
# 150
# 19598
# 35719
# 53765
# 71079
# 85726
# 102263
# 121275
# 137608
# 154190
#
# Disc length: 2270 seconds
#
#
# Revision: 0
# Processed by: cddbd v1.5.2PL0 Copyright (c) Steve Scherf et al.
# Submitted via: FreeRIP 2.945 
#
DISCID=7f08dc0a
DTITLE=Bríet Sunna - Bara ef þú kemur með
DYEAR=2006
DGENRE=Country
TTITLE0=Seinasta sinn
TTITLE1=Líklega er ég ekki ein
TTITLE2=Bara ef þú kemur með
TTITLE3=Baby now that I´ve found you
TTITLE4=Ljóshærð og lagleg
TTITLE5=Hann ætti að vita það
TTITLE6=Eins og ekkert hafi gerst
TTITLE7=Viss um að það rofi til
TTITLE8=Löngu farinn burt
TTITLE9=Always on my mind
EXTD=
EXTT0=
EXTT1=
EXTT2=
EXTT3=
EXTT4=
EXTT5=
EXTT6=
EXTT7=
EXTT8=
EXTT9=
PLAYORDER=
